<?xml version="1.0" encoding="utf-8"?>
<!-- Generator: Adobe Illustrator 25.0.1, SVG Export Plug-In . SVG Version: 6.00 Build 0)  -->
<svg version="1.1" id="Calque_1" xmlns="http://www.w3.org/2000/svg" xmlns:xlink="http://www.w3.org/1999/xlink" x="0px" y="0px"
	 viewBox="0 0 1000 1000" style="enable-background:new 0 0 1000 1000;" xml:space="preserve">
<style type="text/css">
	.st0{fill:url(#SVGID_1_);}
	.st1{fill:url(#SVGID_2_);}
	.st2{fill:url(#SVGID_3_);}
</style>
<g>
	<linearGradient id="SVGID_1_" gradientUnits="userSpaceOnUse" x1="-72.9781" y1="672.9781" x2="634.1287" y2="-34.1287">
		<stop  offset="0" style="stop-color:#C0539A"/>
		<stop  offset="1" style="stop-color:#5089C7"/>
	</linearGradient>
	<polygon class="st0" points="0,1000 0,200 200,0 1000,0 800,200 400,200 200,400 600,400 400,600 200,600 200,800 	"/>
	<linearGradient id="SVGID_2_" gradientUnits="userSpaceOnUse" x1="200" y1="1200" x2="1200" y2="200">
		<stop  offset="0" style="stop-color:#A21874"/>
		<stop  offset="1" style="stop-color:#0E4997"/>
	</linearGradient>
	<polyline class="st1" points="400,800 200,800 0,1000 800,1000 1000,800 1000,0 800,200 800,600 600,800 	"/>
	<linearGradient id="SVGID_3_" gradientUnits="userSpaceOnUse" x1="500" y1="1000" x2="500" y2="400">
		<stop  offset="0" style="stop-color:#E69AC3"/>
		<stop  offset="1" style="stop-color:#BDAAD3"/>
	</linearGradient>
	<polygon class="st2" points="600,400 600,1000 400,1000 400,600 	"/>
</g>
</svg>
