<svg id="Logo" xmlns="http://www.w3.org/2000/svg" viewBox="0 0 450 450">
    <!--
      Logo for Fil

      Credit : Thomas "Durbo" VATE
        my website : https://durbo.vercel.app
        my github : https://github.com/Durb0
    -->
    <style>
        * {
        fill: rgb(17, 24, 39);
        }

        circle {
        fill: rgb(30, 64, 175);
        }

        @media (prefers-color-scheme: dark) {
        * {
        fill: rgb(203, 213, 225);
        }

        circle {
        fill: rgb(29, 78, 216);
        }
        }
    </style>
    <circle fill="currentColor" cx="225" cy="225" r="25" />
    <path fill="currentColor"
          d="M125,450c-30.41,0-61.91-14.06-86.43-38.57S0,355.41,0,325V125C0,94.59,14.06,63.09,38.57,38.57S94.59,0,125,0s61.91,14.06,86.43,38.57S250,94.59,250,125H200c0-17-8.94-36.09-23.93-51.07S142,50,125,50,88.91,58.94,73.93,73.93,50,108,50,125V325c0,17,8.94,36.09,23.93,51.07S108,400,125,400Z" />
    <path fill="currentColor"
          d="M325,450c-30.41,0-61.91-14.06-86.43-38.57S200,355.41,200,325h50c0,17,8.95,36.09,23.93,51.07S308,400,325,400s36.09-8.95,51.07-23.93S400,342,400,325V125c0-17-8.95-36.09-23.93-51.07S342,50,325,50V0c30.41,0,61.91,14.06,86.43,38.57S450,94.59,450,125V325c0,30.41-14.06,61.91-38.57,86.43S355.41,450,325,450Z" />
    <rect fill="currentColor" x="25" y="200" width="100" height="50" />
</svg>